<?xml version="1.0" encoding="utf-8"?>
<!-- Svg Vector Icons : http://www.onlinewebfonts.com/icon -->
<!DOCTYPE svg PUBLIC "-//W3C//DTD SVG 1.1//EN" "http://www.w3.org/Graphics/SVG/1.1/DTD/svg11.dtd">
<svg version="1.1" xmlns="http://www.w3.org/2000/svg" xmlns:xlink="http://www.w3.org/1999/xlink" x="0px" y="0px" viewBox="0 0 256 256" enable-background="new 0 0 256 256" xml:space="preserve">
<metadata> Svg Vector Icons : http://www.onlinewebfonts.com/icon </metadata>
<g> <path fill="#e9eaea" d="M64.8,187c33.8,33.8,88.7,33.8,122.6,0c33.8-33.8,33.8-88.7,0-122.5l0,0c-33.8-33.8-88.7-33.9-122.6,0 C30.9,98.2,30.9,153.1,64.8,187C64.8,186.9,64.8,186.9,64.8,187z"/> <path fill="#bbbfc3" d="M39.5,67.2l-5.9-4.4c21-29.9,55.7-47.9,92.6-47.9c35.4,0,68.2,16.2,90,44.3l-5.9,4.4 c-20.3-26.2-50.9-41.3-84.1-41.3C91.9,22.2,59.4,38.8,39.5,67.2z M126.2,241.2c-36.9,0-71.9-18.1-92.9-48.7l5.9-4.1 c19.9,28.4,52.4,45.4,87,45.4c21,0,41.3-6.3,58.6-17.7l4.1,6.3C170.4,234.6,148.7,241.2,126.2,241.2z"/> <path fill="#a3cdee" d="M187,115.1c0-13.6-26.5-24.7-59-24.7c-32.5,0-59,11.1-59,24.7v49.4c3.7,11.1,29.9,22.1,62.7,22.1 c32.8,0,52.7-15.1,55.3-22.1C186.6,158.6,187,121,187,115.1L187,115.1z"/> <path fill="#294e7d" d="M131.3,190.3c-32.5,0-61.6-10.7-66-24.7l-0.4-0.7v-49.8c0-15.9,27.7-28.4,62.7-28.4 c35,0,62.7,12.5,62.7,28.4v50.2L190,166C187,174.1,165.6,190.3,131.3,190.3z M72.7,163.8c3.3,8.1,25.8,19.2,59,19.2 c29.9,0,48.3-13.3,51.6-19.2v-24v-24.7c0-10-22.9-21-55.3-21c-32.5,0-55.3,11.1-55.3,21V163.8L72.7,163.8z"/> <path fill="#294e7d" d="M80.1,120.3h7.4v44.2h-7.4V120.3z"/> <path fill="#ffffff" d="M135.7,62.4c-3.7-1.1-7.7-1.1-11.4,0L13.7,94.1v11.4l111.4,34.3c3.3,1.1,6.6,1.1,9.6,0l107.3-33.9V94.4 L135.7,62.4z"/> <path fill="#294e7d" d="M129.8,144.2c-1.8,0-4.1-0.4-5.9-0.7L10,108.5v-17l113.6-32.8c4.4-1.5,9.2-1.5,13.6,0L246,91.5v17 l-19.5,6.6l-2.2-7l14.7-5.2v-6.3L135.4,65.3c-2.9-1.1-6.3-1.1-9.2,0L17.7,96.7v6.3l108.8,33.2c2.6,0.7,5.2,0.7,7.7,0l73.8-23.6 l2.2,7l-74.5,24C133.9,143.9,132.1,144.2,129.8,144.2z"/> <path fill="#294e7d" d="M216.1,160.8c-2.2,0-3.7-1.8-3.7-3.7v-29.5c0-4.1-2.6-7.7-5.9-8.5l-76.7-22.5c-1.8-0.7-2.9-2.6-2.6-4.4 c0.7-1.8,2.6-3,4.4-2.6l76.7,22.5c6.6,1.5,11.1,8.1,11.1,15.9v29.5C219.8,159.3,218,160.8,216.1,160.8z"/> <path fill="#ffffff" d="M231.3,201.4l-11.1-36.9h-7.4l-11.1,36.9c-1.1,3.7,3.3,7.4,7.4,7.4h14.7C227.6,208.8,232,205.1,231.3,201.4 L231.3,201.4z"/> <path fill="#294e7d" d="M223.9,212.4h-14.7c-3.3,0-7-1.8-9.2-4.8c-1.8-2.2-2.2-4.8-1.5-7.4l11.8-39.5h12.5l11.8,39.5 c0.7,2.6,0,5.2-1.8,7.4C230.9,210.6,227.2,212.4,223.9,212.4z M215.4,168.2l-10.3,34.3c0,0.4,0,0.7,0.4,0.7 c0.7,1.1,2.2,1.8,3.3,1.8h14.8c1.1,0,2.6-0.7,3.3-1.8c0-0.4,0.4-0.7,0.4-1.1l-10.3-34.3h-1.5V168.2z"/> <path fill="#a3cdee" d="M227.6,157.1c0,6.3-5.2,11.1-11.1,11.1c-6.3,0-11.1-4.8-11.1-11.1c0-6.3,5.2-11.1,11.1-11.1 S227.6,151.2,227.6,157.1z"/> <path fill="#294e7d" d="M216.1,171.9c-4.1,0-7.7-1.5-10.3-4.4c-2.9-3-4.4-6.6-4.4-10.3c0-8.1,6.6-14.8,14.8-14.8 c4.1,0,7.7,1.5,10.3,4.4c3,2.9,4.4,6.6,4.4,10.3C230.9,165.2,224.2,171.9,216.1,171.9z M216.5,149.8c-4.1,0-7.4,3.3-7.4,7.4 c0,1.8,0.7,3.7,2.2,5.2s3.3,2.2,5.2,2.2c4.1,0,7.4-3.3,7.4-7.4c0-1.8-0.7-3.7-2.2-5.2C220.2,150.5,218.3,149.8,216.5,149.8z"/></g>
</svg>